# xmcd
#
# Track frame offsets:
#	150
#	14922
#	33502
#	48072
#	61575
#	80097
#	91502
#	105450
#	116852
#	135002
#	153002
#	168025
#	182027
#	196877
#	207972
#	221775
#
# Disc length: 3115 seconds
#
# Revision: 1
# Processed by: cddbd v1.4PL0 Copyright (c) Steve Scherf et al.
# Submitted via: audiograbber 1.81.03
#
DISCID=c60c2910
DTITLE=Various Artist - Önskedansen2 [CD3)
DYEAR=1900
DGENRE=Ethnic
TTITLE0=Thorleifs - Spar dina tårar
TTITLE1=Vikingarna - Mississippi
TTITLE2=Ingemar Nordströms - Moonlight serenade
TTITLE3=Christina Lindbergs - Vid flodens strand
TTITLE4=Stefan Borsch - Sissi
TTITLE5=Thor-Erics - Vit som en orkide
TTITLE6=Grönwalls - Ett liv tillsammans
TTITLE7=Eldorados - I min lilla värld av blommor
TTITLE8=Vikingarna - Nikita
TTITLE9=Jenny Öhlund and Candela - Du finns i mina tankar
TTITLE10=Tonix - Förlåt mig älskling
TTITLE11=Telstars - En liten snobb
TTITLE12=Sten and Stanley - Grindslanten
TTITLE13=Matz Bladhs - Än en gång skall tulpanerna blomma
TTITLE14=Streaplers - De tusen öarnas land
TTITLE15=Sven-Ingvars - Kristina från Vilhelmina
EXTD=
EXTT0=
EXTT1=
EXTT2=
EXTT3=
EXTT4=
EXTT5=
EXTT6=
EXTT7=
EXTT8=
EXTT9=
EXTT10=
EXTT11=
EXTT12=
EXTT13=
EXTT14=
EXTT15=
PLAYORDER=
